PathFileType	4	(X/Y/Z)	s10c0103.trc
DataRate	CameraRate	NumFrames	NumMarkers	Units	OrigDataRate	OrigDataStartFrame	OrigNumFrames
200	200	4	50	mm	200	750	2000
Frame#	Time	racr			lacr			c7			jug			rlel			rdr			llel			ldr			s2			lic			ric			lasi			rasi			rpsi			lpsi			rgt			lgt			rth1			rth2			rth3			rth4			rlfc			rmfc			rsh1			rsh2			rsh3			rsh4			rlmal			rmmal			rcal			rtoe			rmt5			lth1			lth2			lth4			lth3			llfc			lmfc			llmal			lmmal			lcal			lmt5			lsh1			lsh2			lsh3			lsh4			ltoe			SBIKE			LBIKE			RBIKE			
		X1	Y1	Z1	X2	Y2	Z2	X3	Y3	Z3	X4	Y4	Z4	X5	Y5	Z5	X6	Y6	Z6	X7	Y7	Z7	X8	Y8	Z8	X9	Y9	Z9	X10	Y10	Z10	X11	Y11	Z11	X12	Y12	Z12	X13	Y13	Z13	X14	Y14	Z14	X15	Y15	Z15	X16	Y16	Z16	X17	Y17	Z17	X18	Y18	Z18	X19	Y19	Z19	X20	Y20	Z20	X21	Y21	Z21	X22	Y22	Z22	X23	Y23	Z23	X24	Y24	Z24	X25	Y25	Z25	X26	Y26	Z26	X27	Y27	Z27	X28	Y28	Z28	X29	Y29	Z29	X30	Y30	Z30	X31	Y31	Z31	X32	Y32	Z32	X33	Y33	Z33	X34	Y34	Z34	X35	Y35	Z35	X36	Y36	Z36	X37	Y37	Z37	X38	Y38	Z38	X39	Y39	Z39	X40	Y40	Z40	X41	Y41	Z41	X42	Y42	Z42	X43	Y43	Z43	X44	Y44	Z44	X45	Y45	Z45	X46	Y46	Z46	X47	Y47	Z47	X48	Y48	Z48	X49	Y49	Z49	X50	Y50	Z50	
750	3.7500	454.509822	1295.907028	-118.453475	393.795321	1297.298382	-421.277875	376.325620	1349.034572	-248.131773	388.615114	1204.852113	-258.521981	516.139323	1060.313228	8.067203	642.484738	878.180048	-51.396446	454.140358	1021.736364	-479.806521	633.488545	885.308417	-411.671735	-108.602416	1091.754436	-174.055953	14.234800	1145.610461	-350.933328	92.585773	1106.543263	-68.395787	65.102097	1060.204998	-338.985346	95.851417	1025.284126	-87.586774	-58.569785	1143.260510	-117.316972	-75.510862	1164.135791	-225.257123	-5.018177	982.649217	-15.013458	-45.969852	1014.727064	-392.798122	65.885249	857.631440	-3.565611	125.870352	795.472288	-26.003928	145.020479	712.716455	-39.436940	155.723184	815.754918	-36.718464	201.131391	625.845489	-63.622215	170.336576	610.202096	-174.716409	158.156877	519.201018	-24.751231	173.763922	432.322247	-36.009011	145.810285	350.563826	-35.922334	202.698765	432.558171	-61.717995	134.086122	247.474175	-46.377846	154.996938	260.871111	-127.477411	82.397219	238.542881	-94.781780	317.640508	179.448916	-105.255008	235.028434	163.711539	-39.519244	79.859621	955.819372	-411.758002	165.198393	962.231199	-396.302008	169.696510	994.185338	-378.202662	245.602777	923.456832	-394.929581	355.470191	882.158667	-370.382061	352.201108	866.332732	-244.784726	87.539021	617.117967	-372.864484	102.941478	603.761258	-291.992888	31.571528	627.538379	-328.237701	106.497906	469.301356	-396.895711	269.945509	798.191668	-402.280509	231.984648	720.505226	-385.715922	157.815019	671.918080	-384.813587	253.661284	706.107058	-357.811789	181.174131	422.170624	-343.673209	-217.272301	832.129765	-213.129738	-103.876736	80.688844	-418.300951	-103.835756	80.418806	-18.281674	
751	3.7550	452.794073	1298.376658	-120.319330	393.422391	1295.844987	-423.656877	376.455228	1349.636329	-249.829925	388.534359	1206.336157	-259.964081	518.512661	1063.647388	5.483574	642.748516	878.386636	-51.382335	451.055551	1018.666830	-481.837728	633.007805	885.628081	-411.913153	-108.196542	1092.827660	-172.799769	13.598505	1147.041077	-350.107225	94.394134	1107.416467	-68.729092	65.038208	1061.523427	-339.192952	97.074537	1026.109649	-87.828181	-56.629409	1143.309183	-118.053822	-74.451037	1165.000647	-223.807716	-3.711992	983.481443	-14.225908	-47.078470	1017.252511	-392.245316	65.288371	858.227946	-2.224149	124.004086	794.865780	-24.646996	141.554485	711.594722	-37.572409	154.089626	814.438174	-35.849253	195.804180	623.406931	-62.175436	164.139395	608.964693	-173.428005	152.094732	517.367769	-23.239849	166.953697	430.370148	-34.301164	138.139902	348.841937	-34.563247	196.210111	430.359622	-59.682496	127.423508	245.399414	-45.601469	148.657340	258.747787	-126.426763	76.010761	238.166535	-94.089462	309.800998	173.546131	-105.159270	226.780321	159.743776	-39.324616	79.429844	960.117073	-411.518453	164.667136	968.501091	-396.456577	168.388591	1000.591454	-378.359443	246.050989	931.938249	-395.492945	357.679196	893.806427	-371.454714	356.702072	877.522884	-245.120316	95.031551	622.415084	-373.266619	110.725284	609.062670	-292.215939	38.327154	631.253425	-328.633302	115.560234	473.826625	-396.819080	274.623443	808.573699	-402.926607	238.328201	730.097160	-386.858651	164.800814	679.841059	-384.849989	260.233926	715.507136	-358.980509	190.407538	427.438087	-343.785861	-217.285981	832.168372	-213.119564	-103.876258	80.714932	-418.283299	-103.848049	80.466841	-18.252917	
752	3.7600	450.894123	1300.783085	-121.946315	393.142889	1294.332686	-425.904479	376.594775	1350.071344	-251.335088	388.642050	1207.627890	-261.307073	520.587482	1066.512708	2.757273	643.106284	878.633683	-51.561695	448.214420	1015.552362	-483.586168	632.571369	885.921440	-412.096835	-106.996345	1092.919589	-170.922714	13.285454	1148.165305	-349.469400	96.007216	1108.191572	-69.162593	65.011630	1062.690079	-339.337898	98.116127	1026.882109	-88.210933	-55.779751	1143.211989	-114.811578	-76.962959	1166.901957	-222.028629	-2.604883	984.383917	-13.860148	-47.958711	1019.502578	-391.822575	64.608109	858.868949	-0.824827	122.181953	794.538646	-23.017124	138.273293	710.811225	-35.637623	152.359723	813.530998	-34.934820	190.991251	621.488869	-60.426469	158.693959	607.912404	-172.217564	146.248435	516.063501	-21.827456	160.484558	428.836882	-32.686093	130.775892	347.706764	-33.343011	189.982775	428.593198	-57.819768	120.598820	243.944357	-44.973388	141.965128	257.450947	-125.344956	69.457635	238.063365	-93.618012	301.775698	168.305817	-105.035952	218.495302	156.177954	-39.074700	78.973350	964.281827	-411.340170	164.085720	974.691750	-396.614192	167.155387	1006.779179	-378.346301	246.229981	940.088687	-396.472434	359.590322	904.953788	-372.652487	360.919575	888.267599	-245.972778	101.805940	626.947264	-373.319657	118.178891	614.065536	-292.350566	44.728840	634.092488	-328.705678	124.561639	477.754899	-396.783728	278.829828	818.755663	-403.475421	244.042926	739.488079	-388.085556	170.949899	688.476422	-385.733601	266.503674	724.889001	-361.285153	199.865910	432.390255	-343.703326	-217.294255	832.190347	-213.099653	-103.875970	80.711511	-418.272177	-103.824963	80.417795	-18.240060	
753	3.7650	448.880877	1303.049183	-123.404270	393.091817	1292.907813	-428.105606	376.842127	1350.449669	-252.740829	388.943671	1209.300372	-263.296754	522.244285	1068.982240	-0.324689	643.459768	878.727046	-51.816809	445.297950	1012.481449	-484.711415	632.221117	886.194912	-412.238934	-103.654284	1093.813616	-167.409814	13.288792	1149.101451	-348.975941	97.420913	1108.963613	-69.638483	65.062549	1063.485594	-339.496325	99.843521	1027.933149	-87.365016	-59.655686	1148.653472	-111.537199	-76.629376	1167.948427	-220.128500	-1.704465	985.421402	-13.073376	-48.710202	1021.586681	-391.460572	63.729756	859.667294	0.457897	120.625529	794.341358	-21.570999	135.269940	710.447927	-33.750082	150.906178	812.979647	-33.736687	186.566556	620.030705	-58.563417	154.030609	607.212039	-171.047128	140.712005	515.123626	-20.582895	154.353399	427.794883	-31.283098	123.890462	346.881116	-32.242117	184.067356	427.301321	-56.091613	113.753708	242.995831	-44.426375	133.682515	255.587753	-124.452426	62.953124	238.592710	-93.406996	293.421734	163.410381	-104.932122	209.950022	153.206074	-39.008559	78.387155	968.353767	-411.116957	163.325254	980.280513	-396.704356	166.129026	1012.761859	-378.054972	246.319384	947.910959	-397.636898	360.893564	915.785083	-373.992186	364.536879	898.272683	-247.114508	108.484007	631.007798	-373.208770	124.998349	618.905562	-292.446258	50.849867	636.266917	-328.727744	133.527316	481.267455	-396.770123	282.581503	828.449164	-404.023855	248.934498	748.539363	-389.553507	176.356520	696.656071	-386.453144	272.003492	733.725655	-363.297586	209.554930	437.281762	-343.866699	-217.314096	832.190335	-213.103625	-103.869344	80.700493	-418.251113	-103.830278	80.466839	-18.227231	
